<?xml version="1.0" standalone="no"?>
<!DOCTYPE svg PUBLIC "-//W3C//DTD SVG 20010904//EN"
 "http://www.w3.org/TR/2001/REC-SVG-20010904/DTD/svg10.dtd">
<svg version="1.0" xmlns="http://www.w3.org/2000/svg"
 width="1200.000000pt" height="1200.000000pt" viewBox="0 0 1200.000000 1200.000000"
 preserveAspectRatio="xMidYMid meet">

<g transform="translate(0.000000,1200.000000) scale(0.100000,-0.100000)"
fill="#000000" stroke="none">
<path d="M5828 9657 c-76 -45 -138 -85 -138 -89 0 -10 226 -338 234 -341 6 -2
218 444 214 449 -26 23 -116 64 -141 63 -21 0 -79 -28 -169 -82z"/>
<path d="M6161 9578 c-16 -34 -65 -141 -110 -237 -44 -95 -81 -177 -81 -181 0
-7 296 -442 545 -803 11 -16 41 34 239 397 124 228 226 418 226 423 0 7 -751
451 -781 461 -5 2 -22 -25 -38 -60z"/>
<path d="M4910 9121 l-715 -418 -3 -99 -2 -99 430 -525 c237 -289 439 -533
448 -542 16 -16 41 33 422 847 223 476 407 865 410 865 3 0 12 -12 21 -26 l16
-26 12 30 c11 26 10 34 -5 57 l-17 27 -15 -28 -14 -27 -19 24 c-10 13 -69 99
-131 191 -62 92 -115 167 -118 167 -3 0 -327 -188 -720 -418z"/>
<path d="M6877 8857 c-87 -161 -192 -354 -233 -430 l-76 -139 -22 21 -23 21
-11 -25 c-10 -21 -9 -30 5 -51 l16 -26 15 27 c7 15 18 23 22 19 5 -5 207 -299
450 -654 243 -355 448 -651 454 -658 10 -10 46 49 174 285 l162 297 -2 579 -3
580 -383 224 c-211 122 -384 223 -385 223 -1 -1 -73 -132 -160 -293z"/>
<path d="M5530 8230 c-222 -473 -406 -860 -409 -860 -3 0 -12 10 -20 22 l-13
22 -15 -28 c-15 -28 -15 -28 -33 -10 -10 11 -205 248 -434 527 l-416 508 0
-913 1 -913 190 -110 c105 -60 195 -110 200 -110 5 0 112 220 239 489 126 268
231 491 235 494 3 3 13 -5 22 -17 l16 -24 14 27 c8 15 17 25 21 22 4 -2 122
-144 262 -315 193 -235 258 -307 266 -298 16 18 834 1524 834 1536 0 10 -521
774 -544 799 -10 10 -92 -157 -416 -848z"/>
<path d="M6527 8213 c-8 -14 -614 -1128 -725 -1333 -58 -107 -107 -197 -110
-200 -2 -3 -12 5 -21 17 l-18 22 -19 -24 -19 -24 -255 314 c-140 173 -257 314
-260 314 -7 1 -462 -970 -458 -974 10 -10 590 -345 596 -345 4 0 90 153 191
340 101 187 187 340 191 340 4 0 13 -7 20 -15 17 -20 27 -19 35 6 4 11 11 19
15 17 5 -2 172 -201 370 -443 199 -242 366 -439 373 -437 7 2 147 82 313 179
l300 175 198 364 c109 200 202 367 206 369 5 3 15 -4 24 -16 l14 -21 14 21 c7
11 16 21 20 21 4 0 55 -71 114 -157 59 -87 109 -160 110 -162 2 -2 17 2 34 9
l30 12 0 417 0 416 -23 -40 c-13 -22 -76 -138 -142 -257 -65 -120 -122 -218
-126 -218 -4 0 -14 9 -23 21 -14 21 -14 21 -29 -6 l-14 -28 -45 64 c-25 35
-228 332 -453 659 -224 327 -411 599 -415 603 -4 5 -10 5 -13 0z"/>
<path d="M7318 6518 c-91 -167 -164 -305 -162 -307 1 -1 125 68 274 154 l270
158 -17 26 c-84 127 -186 271 -192 271 -4 0 -82 -136 -173 -302z"/>
<path d="M5495 6319 c-87 -161 -168 -310 -181 -333 l-23 -41 338 -197 c249
-145 347 -198 371 -198 22 0 83 30 200 98 93 53 168 100 167 104 -4 14 -699
858 -706 858 -4 0 -78 -131 -166 -291z"/>
</g>
</svg>
